<?xml version="1.0" standalone="no"?>
<!DOCTYPE svg PUBLIC "-//W3C//DTD SVG 20010904//EN"
 "http://www.w3.org/TR/2001/REC-SVG-20010904/DTD/svg10.dtd">
<svg version="1.0" xmlns="http://www.w3.org/2000/svg"
 width="1280.000000pt" height="640.000000pt" viewBox="0 0 1280.000000 640.000000"
 preserveAspectRatio="xMidYMid meet">
<g transform="translate(0.000000,640.000000) scale(0.100000,-0.100000)"
fill="#000000" stroke="none">
<path d="M4933 6077 c-208 -139 -294 -208 -437 -346 -139 -137 -250 -276 -308
-387 -36 -69 -148 -342 -148 -362 0 -22 -36 -35 -157 -52 -456 -68 -769 -167
-1178 -375 -497 -252 -1111 -670 -1449 -986 -238 -222 -418 -482 -647 -931
-38 -76 -75 -138 -81 -138 -6 0 -44 11 -83 25 -137 47 -216 44 -306 -14 -57
-36 -94 -83 -120 -153 -25 -69 -24 -82 9 -176 69 -194 197 -351 389 -476 131
-86 248 -140 453 -210 91 -32 169 -61 174 -66 4 -5 -9 -36 -30 -71 -38 -61
-39 -65 -39 -158 0 -82 4 -104 26 -151 31 -66 75 -113 138 -144 137 -70 380
-80 596 -25 118 30 481 142 627 194 126 44 129 44 201 35 166 -21 329 -23 492
-6 225 23 336 41 344 55 4 6 99 27 212 46 112 19 238 41 279 50 90 19 68 39
191 -180 246 -437 439 -657 687 -782 84 -43 103 -48 171 -51 90 -4 163 19 276
88 109 67 177 125 361 312 161 163 172 176 184 227 29 122 -10 242 -107 331
-59 54 -134 96 -280 156 -48 20 -110 48 -138 61 -86 44 -337 213 -333 225 9
26 545 221 1188 432 228 75 594 197 812 272 219 74 405 134 414 132 12 -2 29
-40 55 -121 41 -126 139 -338 209 -452 62 -102 180 -253 248 -317 32 -31 83
-69 113 -84 51 -27 61 -29 179 -29 103 0 138 4 200 23 190 59 321 155 382 280
27 55 33 78 33 132 0 127 -74 225 -272 361 -59 41 -162 117 -228 169 -66 53
-155 122 -197 154 -43 32 -78 64 -78 71 0 31 679 180 1114 245 301 44 271 50
352 -72 94 -144 198 -283 263 -352 147 -153 403 -342 794 -585 532 -330 991
-475 1454 -460 94 4 116 8 165 32 110 54 157 143 179 334 28 251 -42 441 -236
642 -140 146 -510 434 -832 649 -84 56 -153 108 -153 116 0 7 5 27 11 44 12
34 15 35 208 47 127 8 214 26 351 73 231 79 511 212 680 324 257 169 490 481
490 657 0 48 -38 181 -65 228 -63 106 -204 186 -395 222 -127 25 -518 63 -687
68 -475 14 -1044 -93 -1398 -263 -112 -54 -237 -134 -411 -266 -74 -57 -142
-107 -150 -113 -10 -7 -40 0 -107 24 -661 241 -1241 410 -1782 520 -129 26
-238 50 -241 54 -4 4 33 59 82 122 200 260 224 311 259 559 27 183 50 159
-225 233 -268 73 -1087 279 -1260 317 -150 33 -338 63 -475 76 -141 13 -560
30 -736 30 l-136 0 -140 -93z"/>
</g>
</svg>
