<?xml version="1.0" standalone="no"?>
<!DOCTYPE svg PUBLIC "-//W3C//DTD SVG 20010904//EN"
 "http://www.w3.org/TR/2001/REC-SVG-20010904/DTD/svg10.dtd">
<svg version="1.0" xmlns="http://www.w3.org/2000/svg"
 width="1044.000000pt" height="1280.000000pt" viewBox="0 0 1044.000000 1280.000000"
 preserveAspectRatio="xMidYMid meet">
<metadata>
Created by potrace 1.15, written by Peter Selinger 2001-2017
</metadata>
<g transform="translate(0.000000,1280.000000) scale(0.100000,-0.100000)"
fill="#000000" stroke="none">
<path d="M7716 12780 c-181 -65 -353 -282 -440 -559 -63 -199 -79 -448 -38
-601 11 -41 19 -76 17 -78 -6 -7 -251 -2 -375 8 -223 18 -854 24 -1040 11
-435 -31 -690 -85 -1007 -212 -29 -12 -38 -27 -102 -183 -90 -220 -264 -642
-356 -866 -180 -434 -464 -1073 -620 -1395 -48 -99 -117 -241 -153 -315 -79
-163 -265 -513 -375 -705 -369 -644 -743 -1143 -1129 -1509 -245 -231 -434
-367 -756 -545 -473 -261 -703 -421 -928 -645 -163 -163 -259 -291 -360 -478
-29 -55 -51 -105 -48 -109 3 -5 64 -56 137 -114 1165 -934 4020 -2013 6730
-2544 142 -28 259 -51 260 -51 1 0 2 -69 2 -152 0 -175 13 -234 75 -364 88
-182 267 -348 428 -395 l42 -12 -1 -61 c0 -34 -10 -223 -23 -421 l-22 -360 37
-36 c68 -66 222 -98 390 -79 173 19 345 77 467 157 58 38 182 157 182 175 0 5
-81 183 -180 394 l-180 385 53 62 c98 116 163 271 175 419 6 75 9 83 27 81
355 -34 1013 -43 1290 -18 237 21 496 62 516 82 16 17 31 231 26 368 -15 354
-123 662 -437 1245 -37 69 -91 172 -121 230 -29 58 -77 146 -105 196 -227 394
-387 905 -453 1449 -33 276 -36 325 -36 755 1 416 5 525 36 855 20 224 49 460
100 815 40 283 38 272 214 1330 41 243 110 672 125 770 25 168 27 152 -23 222
-25 35 -83 104 -129 154 -253 273 -513 461 -1173 848 -460 270 -538 318 -590
363 l-50 44 65 68 c113 119 202 292 257 499 24 87 26 116 27 282 1 202 -8 259
-61 366 -78 160 -218 226 -367 174z"/>
</g>
</svg>
