<?xml version="1.0" standalone="no"?>
<!DOCTYPE svg PUBLIC "-//W3C//DTD SVG 20010904//EN"
 "http://www.w3.org/TR/2001/REC-SVG-20010904/DTD/svg10.dtd">
<svg version="1.0" xmlns="http://www.w3.org/2000/svg"
 width="1280.000000pt" height="792.000000pt" viewBox="0 0 1280.000000 792.000000"
 preserveAspectRatio="xMidYMid meet">
<metadata>
Created by potrace 1.15, written by Peter Selinger 2001-2017
</metadata>
<g transform="translate(0.000000,792.000000) scale(0.100000,-0.100000)"
fill="#000000" stroke="none">
<path d="M0 3959 l0 -3962 88 7 c531 42 1021 229 1605 612 398 262 695 499
1547 1239 701 608 985 834 1370 1090 535 356 936 527 1450 617 102 18 578 18
680 0 244 -43 430 -94 628 -173 597 -238 1202 -661 2192 -1535 250 -220 715
-614 895 -759 893 -716 1560 -1039 2253 -1091 l92 -7 0 3962 0 3961 -32 0
c-18 0 -76 -5 -128 -10 -596 -62 -1168 -320 -1876 -845 -284 -211 -548 -430
-1125 -931 -757 -658 -1068 -907 -1449 -1160 -535 -355 -938 -526 -1450 -616
-102 -18 -578 -18 -680 0 -502 88 -909 259 -1424 598 -382 253 -735 534 -1466
1170 -742 646 -1040 885 -1425 1143 -582 391 -1066 587 -1585 641 -52 5 -110
10 -127 10 l-33 0 0 -3961z"/>
</g>
</svg>
