<?xml version="1.0" standalone="no"?>
<!DOCTYPE svg PUBLIC "-//W3C//DTD SVG 20010904//EN"
 "http://www.w3.org/TR/2001/REC-SVG-20010904/DTD/svg10.dtd">
<svg version="1.0" xmlns="http://www.w3.org/2000/svg"
 width="1280.000000pt" height="1234.000000pt" viewBox="0 0 1280.000000 1234.000000"
 preserveAspectRatio="xMidYMid meet">
<metadata>
Created by potrace 1.15, written by Peter Selinger 2001-2017
</metadata>
<g transform="translate(0.000000,1234.000000) scale(0.100000,-0.100000)"
fill="#000000" stroke="none">
<path d="M4810 12325 c-152 -25 -333 -85 -518 -171 -357 -166 -618 -469 -760
-884 -84 -244 -121 -471 -129 -782 -3 -120 -8 -218 -10 -218 -3 0 -55 16 -117
34 -741 230 -1339 183 -1769 -140 -151 -113 -363 -356 -468 -536 -129 -220
-179 -449 -149 -684 6 -54 38 -205 70 -335 74 -302 83 -365 78 -548 -4 -144
-5 -148 -40 -222 -80 -166 -182 -282 -431 -491 -100 -84 -214 -185 -253 -224
-261 -266 -354 -603 -298 -1084 27 -238 84 -416 191 -592 218 -361 634 -656
1188 -843 77 -26 141 -48 142 -49 1 -1 -27 -42 -63 -92 -234 -319 -392 -657
-461 -984 -23 -108 -27 -150 -27 -305 -1 -153 3 -195 22 -284 40 -177 94 -306
209 -496 167 -275 377 -476 590 -565 149 -62 254 -81 588 -105 244 -17 356
-35 477 -75 138 -46 197 -81 269 -157 120 -127 198 -265 314 -558 81 -203 130
-304 198 -404 167 -248 446 -407 873 -498 112 -24 152 -27 304 -28 133 0 196
4 260 18 447 96 857 394 1228 891 41 56 78 101 83 101 4 0 38 -40 75 -90 272
-366 564 -627 869 -775 194 -95 360 -138 566 -147 348 -15 799 121 1039 314
165 132 263 286 400 628 119 296 185 414 307 545 73 79 130 113 271 160 121
41 233 58 477 75 331 24 439 43 590 106 256 106 499 368 683 735 224 448 180
990 -128 1547 -70 126 -167 277 -241 375 l-50 66 148 51 c629 219 1040 532
1243 948 109 224 144 403 145 732 0 224 -10 298 -59 443 -75 220 -187 360
-481 602 -242 200 -351 319 -438 480 -44 80 -57 150 -57 301 0 142 14 229 85
514 65 265 79 364 72 510 -15 288 -155 563 -439 860 -264 277 -557 413 -964
447 -285 24 -654 -28 -1002 -142 -51 -16 -98 -30 -104 -30 -6 0 -8 16 -6 43 3
23 1 121 -3 217 -32 713 -273 1235 -704 1522 -85 56 -281 150 -405 193 -314
109 -556 123 -792 45 -120 -40 -221 -93 -437 -228 -568 -354 -756 -354 -1322
1 -278 173 -399 229 -572 262 -94 18 -252 18 -357 0z"/>
</g>
</svg>
